<?xml version="1.0" encoding="utf-8"?>
<!-- Generator: Adobe Illustrator 24.0.0, SVG Export Plug-In . SVG Version: 6.00 Build 0)  -->
<svg version="1.1" id="Layer_1" xmlns="http://www.w3.org/2000/svg" xmlns:xlink="http://www.w3.org/1999/xlink" x="0px" y="0px"
	 viewBox="0 0 100 100.4" style="enable-background:new 0 0 100 100.4;" xml:space="preserve">
<style type="text/css">
	.st0{fill:#E7803B;}
</style>
<path class="st0" d="M49,9.5c-21.4,0-38.8,17.4-38.8,38.8c0,7.4,2.1,14.6,6.1,20.8l-6.3,16.5c-0.2,0.4-0.1,0.9,0.3,1.2
	c0.2,0.2,0.5,0.3,0.7,0.3c0.1,0,0.3,0,0.4-0.1l15.4-6.9c6.5,4.6,14.2,7,22.2,7c21.4,0,38.8-17.4,38.8-38.8S70.4,9.5,49,9.5z
	 M46.9,59.1H30.5V37.5h15.8v3.8H34.9v4.6h10.5v3.8H34.9v5.6h12L46.9,59.1L46.9,59.1z M65,57.7c-1.5,1.3-3.7,2-6.5,2
	c-2.8,0-5.1-0.6-6.7-1.9c-1.6-1.3-2.4-3.1-2.4-5.3h4.3c0.1,1,0.4,1.7,0.8,2.2c0.7,0.9,2,1.3,3.8,1.3c1.1,0,2-0.1,2.6-0.4
	c1.3-0.4,1.9-1.3,1.9-2.5c0-0.7-0.3-1.3-0.9-1.7c-0.6-0.4-1.6-0.7-3-1l-2.3-0.5c-2.3-0.5-3.9-1.1-4.7-1.7c-1.5-1-2.2-2.6-2.2-4.7
	c0-1.9,0.7-3.5,2.1-4.8c1.4-1.3,3.5-1.9,6.3-1.9c2.3,0,4.3,0.6,5.9,1.8s2.5,3,2.6,5.3h-4.3c-0.1-1.3-0.7-2.2-1.7-2.8
	c-0.7-0.4-1.6-0.5-2.7-0.5c-1.2,0-2.1,0.2-2.9,0.7c-0.7,0.5-1.1,1.1-1.1,2c0,0.8,0.4,1.3,1.1,1.7c0.5,0.3,1.4,0.6,2.9,0.9l3.8,0.9
	c1.7,0.4,2.9,0.9,3.7,1.6c1.3,1,1.9,2.5,1.9,4.4C67.3,54.8,66.5,56.4,65,57.7z"/>
</svg>
