<?xml version="1.0" encoding="utf-8"?>
<!-- Generator: Adobe Illustrator 24.0.0, SVG Export Plug-In . SVG Version: 6.00 Build 0)  -->
<svg version="1.1" xmlns="http://www.w3.org/2000/svg" xmlns:xlink="http://www.w3.org/1999/xlink" x="0px" y="0px"
	 viewBox="0 0 100 101.5" style="enable-background:new 0 0 100 101.5;" xml:space="preserve">
<style type="text/css">
	.st0{fill:#E7803B;}
</style>
<g id="Layer_2">
</g>
<g id="Layer_1">
	<g>
		<path class="st0" d="M5273.1,2400.1v-2c0-2.8-5-4-9.7-4s-9.7,1.3-9.7,4v2c0,1.8,0.7,3.6,2,4.9l5,4.9c0.3,0.3,0.4,0.6,0.4,1v6.4
			c0,0.4,0.2,0.7,0.6,0.8l2.9,0.9c0.5,0.1,1-0.2,1-0.8v-7.2c0-0.4,0.2-0.7,0.4-1l5.1-5C5272.4,2403.7,5273.1,2401.9,5273.1,2400.1z
			 M5263.4,2400c-4.8,0-7.4-1.3-7.5-1.8l0,0c0.1-0.5,2.7-1.8,7.5-1.8s7.3,1.3,7.5,1.8C5270.7,2398.7,5268.2,2400,5263.4,2400z"/>
		<path class="st0" d="M5268.4,2410.3c-0.6,0-1,0.4-1,1s0.4,1,1,1h4.3c0.6,0,1-0.4,1-1s-0.4-1-1-1H5268.4z"/>
		<path class="st0" d="M5272.7,2413.7h-4.3c-0.6,0-1,0.4-1,1s0.4,1,1,1h4.3c0.6,0,1-0.4,1-1
			C5273.7,2414.1,5273.3,2413.7,5272.7,2413.7z"/>
		<path class="st0" d="M5272.7,2417h-4.3c-0.6,0-1,0.4-1,1s0.4,1,1,1h4.3c0.6,0,1-0.4,1-1C5273.7,2417.5,5273.3,2417,5272.7,2417z"
			/>
	</g>
	<g>
		<path class="st0" d="M43.5,19.1c-0.7-0.7-1.8-0.7-2.5,0l-9.2,9.2l-4.2-4.2c-0.7-0.7-1.8-0.7-2.5,0l-1.7,1.7
			c-0.6,0.6-0.7,1.7-0.1,2.4l7.2,8.9c0.7,0.9,2,0.9,2.7,0l12-13.9c0.6-0.7,0.6-1.7-0.1-2.4L43.5,19.1z"/>
		<path class="st0" d="M76.1,26.4H50.8c-0.6,0-1.1,0.5-1.1,1.1v4.4c0,0.6,0.5,1.1,1.1,1.1H76c0.6,0,1.1-0.5,1.1-1.1v-4.4
			C77.1,26.8,76.7,26.4,76.1,26.4z"/>
		<path class="st0" d="M43.5,41c-0.7-0.7-1.8-0.7-2.5,0l-9.2,9.2L27.5,46c-0.7-0.7-1.8-0.7-2.5,0l-1.7,1.7c-0.6,0.6-0.7,1.7-0.1,2.4
			l7.2,8.9c0.7,0.9,2,0.9,2.7,0l12-13.9c0.6-0.7,0.6-1.7-0.1-2.4L43.5,41z"/>
		<path class="st0" d="M76.1,48.2H50.8c-0.6,0-1.1,0.5-1.1,1.1v4.4c0,0.6,0.5,1.1,1.1,1.1H76c0.6,0,1.1-0.5,1.1-1.1v-4.4
			C77.1,48.7,76.7,48.2,76.1,48.2z"/>
		<path class="st0" d="M43.5,62.8c-0.7-0.7-1.8-0.7-2.5,0L31.8,72l-4.2-4.2c-0.7-0.7-1.8-0.7-2.5,0l-1.7,1.7
			c-0.6,0.6-0.7,1.7-0.1,2.4l7.2,8.9c0.7,0.9,2,0.9,2.7,0l12-13.9c0.6-0.7,0.6-1.7-0.1-2.4L43.5,62.8z"/>
		<path class="st0" d="M76.1,70.1H50.8c-0.6,0-1.1,0.5-1.1,1.1v4.4c0,0.6,0.5,1.1,1.1,1.1H76c0.6,0,1.1-0.5,1.1-1.1v-4.4
			C77.1,70.6,76.7,70.1,76.1,70.1z"/>
		<path class="st0" d="M80.3,2.5H19.7C13,2.5,7.5,8,7.5,14.7v70.6c0,6.7,5.5,12.2,12.2,12.2h60.5c6.7,0,12.2-5.5,12.2-12.2V14.7
			C92.5,8,87,2.5,80.3,2.5z M85.7,85.3c0,3-2.5,5.5-5.5,5.5H19.7c-3,0-5.5-2.5-5.5-5.5V14.7c0-3,2.5-5.5,5.5-5.5h60.5
			c3,0,5.5,2.5,5.5,5.5V85.3z"/>
	</g>
</g>
</svg>
