<?xml version="1.0" encoding="utf-8"?>
<!-- Generator: Adobe Illustrator 24.0.0, SVG Export Plug-In . SVG Version: 6.00 Build 0)  -->
<svg version="1.1" id="Layer_1" xmlns="http://www.w3.org/2000/svg" xmlns:xlink="http://www.w3.org/1999/xlink" x="0px" y="0px"
	 viewBox="0 0 100 105.6" style="enable-background:new 0 0 100 105.6;" xml:space="preserve">
<style type="text/css">
	.st0{fill:#E7803B;}
</style>
<path class="st0" d="M11.2,90h77.9c0.6,0,1-0.4,1-1V56.4c0-0.6-0.4-1-1-1H85c-0.6,0-1,0.4-1,1v1.9h-2.9v-1.9c0-0.6-0.4-1-1-1h-3.6
	c-0.6,0-1,0.4-1,1v1.9h-2.9v-1.9c0-0.6-0.4-1-1-1h-3.2V40.9l1.8-10c0.1-0.3,0-0.6-0.2-0.8c-0.2-0.2-0.5-0.4-0.8-0.4h-5.3
	c-0.6,0-1,0.4-1,1V33h-3.8v-2.3c0-0.6-0.4-1-1-1h-5.5c-0.6,0-1,0.4-1,1V33h-0.9V11c0-0.6-0.4-1-1-1s-1,0.4-1,1v1.2
	c-3-1.1-5.8,0.6-5.9,0.7c-0.1,0-0.2,0.1-0.2,0.2l0,0c-0.1,0.1-0.1,0.2-0.2,0.3c0,0,0,0,0,0.1s-0.1,0.2-0.1,0.3v0.1
	c0,0,0,0.2-0.2,0.3s-1.1,0.6-4.4-0.7c-7.1-2.9-11.8,0.8-11.9,0.9c-0.3,0.3-0.4,0.7-0.3,1.1c0.1,0.4,0.5,0.7,0.9,0.7
	c0.9,0.1,1.7,0.3,2.2,0.5c-2.1,1.3-3,4-3.1,4.2c-0.1,0.4,0,0.9,0.4,1.1c0.4,0.3,0.9,0.2,1.2-0.1c0.1-0.1,2.3-1.8,6.8,0.2
	c2.9,1.2,6,1.8,8.3,1.8c1.4,0,2.5-0.2,3.1-0.6c0.4-0.3,0.6-0.8,0.5-1.3c-0.1-0.8,0.2-1.2,0.4-1.4c1.4,0.2,2.4,0.7,2.4,0.7
	s0.1,0,0.1,0.1V33h-0.8v-2.3c0-0.6-0.4-1-1-1h-5.3c-0.6,0-1,0.4-1,1V33h-3.7v-2.3c0-0.6-0.4-1-1-1h-4.8c-0.3,0-0.6,0.1-0.8,0.4
	c-0.2,0.2-0.3,0.5-0.2,0.8l1.8,10v14.6h-3.2c-0.6,0-1,0.4-1,1v1.9h-2.9v-1.9c0-0.6-0.4-1-1-1h-3.6c-0.6,0-1,0.4-1,1v1.9h-2.9v-1.9
	c0-0.6-0.4-1-1-1h-4.1c-0.6,0-1,0.4-1,1V89C10.2,89.6,10.6,90,11.2,90z M34.7,20.2c-2.6-1.1-4.6-1.2-6.1-1c0.6-0.7,1.3-1.3,2.2-1.3
	c0.4,0,0.7-0.3,0.9-0.6c0.1-0.4,0.1-0.8-0.2-1c-0.3-0.3-1-1-2.2-1.5c1.7-0.6,4.4-0.9,7.7,0.5c2.3,1,4.1,1.3,5.3,0.9v3.7
	c0,0.3,0.2,0.6,0.4,0.8c0.3,0.2,0.6,0.2,0.9,0.1c0.1,0,0.1,0,0.2-0.1c-0.1,0.3-0.1,0.6-0.1,0.9C42.7,22,38.8,21.9,34.7,20.2z
	 M46,18.5L46,18.5c-0.6,0-1.1,0-1.6,0.1v-4.2c0.8-0.4,2.7-0.9,4.4,0.1v4.7C48.1,18.9,47.1,18.6,46,18.5z M33.9,41.8h32.6V88h-5.8
	c0-3-0.4-15.8-9.8-24.1c-0.4-0.3-0.9-0.3-1.3,0c-9.5,8.3-10,21.1-9.9,24.1h-5.8V41.8z M49.2,67v21h-7.5C41.7,85.6,42,74.7,49.2,67z
	 M51.2,67c7.1,7.7,7.5,18.5,7.5,21h-7.5V67z M70.6,57.4v1.9c0,0.6,0.4,1,1,1h4.9c0.6,0,1-0.4,1-1v-1.9h1.6v1.9c0,0.6,0.4,1,1,1H85
	c0.6,0,1-0.4,1-1v-1.9h2.1V88H68.4V57.4H70.6z M34.9,31.7V34c0,0.6,0.4,1,1,1h5.7c0.6,0,1-0.4,1-1v-2.3h3.3V34c0,0.6,0.4,1,1,1h5.7
	c0.6,0,1-0.4,1-1v-2.3h3.5V34c0,0.6,0.4,1,1,1h5.8c0.6,0,1-0.4,1-1v-2.3H68l-1.4,8.1H33.7l-1.4-8.1C32.3,31.7,34.9,31.7,34.9,31.7z
	 M14.3,57.4v1.9c0,0.6,0.4,1,1,1h4.9c0.6,0,1-0.4,1-1v-1.9h1.6v1.9c0,0.6,0.4,1,1,1h4.9c0.6,0,1-0.4,1-1v-1.9h2.2V88H12.2V57.4H14.3
	z"/>
<path class="st0" d="M74.4,76.7h7.9c0.6,0,1-0.4,1-1v-6.8c0-2.7-2.2-5-5-5s-5,2.2-5,5v6.8C73.4,76.2,73.8,76.7,74.4,76.7z
	 M75.4,68.9c0-1.6,1.3-3,3-3c1.6,0,3,1.3,3,3v5.8h-5.9L75.4,68.9L75.4,68.9z"/>
<path class="st0" d="M18,76.7h8c0.6,0,1-0.4,1-1v-6.8c0-2.7-2.2-5-5-5s-5,2.2-5,5v6.8C17,76.2,17.5,76.7,18,76.7z M19,68.9
	c0-1.6,1.3-3,3-3c1.6,0,3,1.3,3,3v5.8h-6V68.9z"/>
</svg>
