<?xml version="1.0" encoding="utf-8"?>
<!-- Generator: Adobe Illustrator 24.0.0, SVG Export Plug-In . SVG Version: 6.00 Build 0)  -->
<svg version="1.1" id="Layer_1" xmlns="http://www.w3.org/2000/svg" xmlns:xlink="http://www.w3.org/1999/xlink" x="0px" y="0px"
	 viewBox="0 0 64 65.7" style="enable-background:new 0 0 64 65.7;" xml:space="preserve">
<style type="text/css">
	.st0{fill:#E7803B;}
</style>
<path class="st0" d="M61.4,7.1C61,6.9,60.6,7,60.3,7.3L48,19.6V3c0-0.6-0.4-1-1-1H25C12.3,2,2,12.3,2,25c0,10.9,7.7,20.2,18.1,22.5
	L7.3,60.3C7,60.6,6.9,61,7.1,61.4C7.2,61.8,7.6,62,8,62h53c0.6,0,1-0.4,1-1V8C62,7.6,61.8,7.2,61.4,7.1z M26,4
	c5,0.2,9.6,2.2,13.1,5.4L26,22.6V4z M27,26v14.6l-3,3V26H27z M29,26h3v9.6l-3,3V26z M34,26h3v4.6l-3,3V26z M39,26h2.6L39,28.6V26z
	 M43.6,24H27.4l13.1-13.1c2.7,3,4.6,6.7,5.2,11L43.6,24z M41.9,9.5L46,5.4v10.2C45,13.4,43.6,11.3,41.9,9.5z M44.6,4l-4.1,4.1
	c-1.8-1.7-3.9-3-6.2-4.1H44.6z M24,4.1V24H4.1C4.6,13.2,13.2,4.6,24,4.1z M17,26v18.4c-1-0.4-2-1-3-1.5V26H17z M7,26v9.8
	c-1.7-2.9-2.8-6.2-3-9.8H7z M9,38.6V26h3v15.5C10.9,40.6,9.9,39.6,9,38.6z M19,45.1V26h3v19.6l-0.2,0.2C20.9,45.6,19.9,45.4,19,45.1
	z M60,10.4V53h-6c-0.6,0-1,0.4-1,1v6H10.4L60,10.4z M55,60v-5h5v5H55z"/>
<path class="st0" d="M13,14.4V21h2v-7h2v4c0,0.2,0,0.3,0.1,0.4l1,2c0.2,0.3,0.5,0.6,0.9,0.6h1v-2h-0.4L19,17.8V14h2v-2h-8
	c-0.3,0-0.5,0.1-0.7,0.3l-2,2l1.4,1.4L13,14.4z"/>
</svg>
