<?xml version="1.0" encoding="utf-8"?>
<!-- Generator: Adobe Illustrator 24.0.0, SVG Export Plug-In . SVG Version: 6.00 Build 0)  -->
<svg version="1.1" xmlns="http://www.w3.org/2000/svg" xmlns:xlink="http://www.w3.org/1999/xlink" x="0px" y="0px"
	 viewBox="0 0 100 107.9" style="enable-background:new 0 0 100 107.9;" xml:space="preserve">
<style type="text/css">
	.st0{fill:#E7803B;}
</style>
<g id="Layer_2">
</g>
<g id="Layer_1">
	<g>
		<path class="st0" d="M93.7,13.5H79.4V4.8c0-1.3-1-2.3-2.3-2.3H66.6c-1.3,0-2.3,1-2.3,2.3v8.7H35.7V4.8c0-1.3-1-2.3-2.3-2.3H22.9
			c-1.3,0-2.3,1-2.3,2.3v8.7H6.3c-1.2,0-2.3,1-2.3,2.3v79.5c0,1.3,1,2.3,2.3,2.3h87.4c1.2,0,2.3-1,2.3-2.3V15.8
			C96,14.5,94.9,13.5,93.7,13.5z M68.8,7.1h6v13.2h-6V7.1z M25.1,7.1h6v13.2h-6V7.1z M91.4,92.9H8.6V34.4h82.8V92.9z"/>
		<path class="st0" d="M20,82.6h10.7c0.6,0,1.1-0.5,1.1-1.1V70.7c0-0.6-0.5-1.1-1.1-1.1H20c-0.6,0-1.1,0.5-1.1,1.1v10.7
			C18.9,82.1,19.4,82.6,20,82.6z"/>
		<path class="st0" d="M44.6,82.6h10.7c0.6,0,1.1-0.5,1.1-1.1V70.7c0-0.6-0.5-1.1-1.1-1.1H44.6c-0.6,0-1.1,0.5-1.1,1.1v10.7
			C43.4,82.1,43.9,82.6,44.6,82.6z"/>
		<path class="st0" d="M69.1,82.6h10.7c0.6,0,1.1-0.5,1.1-1.1V70.7c0-0.6-0.5-1.1-1.1-1.1H69.1c-0.6,0-1.1,0.5-1.1,1.1v10.7
			C67.9,82.1,68.4,82.6,69.1,82.6z"/>
		<path class="st0" d="M20,57.9h10.7c0.6,0,1.1-0.5,1.1-1.1V46.1c0-0.6-0.5-1.1-1.1-1.1H20c-0.6,0-1.1,0.5-1.1,1.1v10.7
			C18.9,57.4,19.4,57.9,20,57.9z"/>
		<path class="st0" d="M44.6,57.9h10.7c0.6,0,1.1-0.5,1.1-1.1V46.1c0-0.6-0.5-1.1-1.1-1.1H44.6c-0.6,0-1.1,0.5-1.1,1.1v10.7
			C43.4,57.4,43.9,57.9,44.6,57.9z"/>
		<path class="st0" d="M69.1,57.9h10.7c0.6,0,1.1-0.5,1.1-1.1V46.1c0-0.6-0.5-1.1-1.1-1.1H69.1c-0.6,0-1.1,0.5-1.1,1.1v10.7
			C67.9,57.4,68.4,57.9,69.1,57.9z"/>
	</g>
</g>
</svg>
