<?xml version="1.0" encoding="utf-8"?>
<!-- Generator: Adobe Illustrator 24.0.0, SVG Export Plug-In . SVG Version: 6.00 Build 0)  -->
<svg version="1.1" xmlns="http://www.w3.org/2000/svg" xmlns:xlink="http://www.w3.org/1999/xlink" x="0px" y="0px"
	 viewBox="0 0 100 101.5" style="enable-background:new 0 0 100 101.5;" xml:space="preserve">
<style type="text/css">
	.st0{fill:#E7803B;}
</style>
<g id="Layer_2">
</g>
<g id="Layer_1">
	<g>
		<path class="st0" d="M5273.1,2400.1v-2c0-2.8-5-4-9.7-4s-9.7,1.3-9.7,4v2c0,1.8,0.7,3.6,2,4.9l5,4.9c0.3,0.3,0.4,0.6,0.4,1v6.4
			c0,0.4,0.2,0.7,0.6,0.8l2.9,0.9c0.5,0.1,1-0.2,1-0.8v-7.2c0-0.4,0.2-0.7,0.4-1l5.1-5C5272.4,2403.7,5273.1,2401.9,5273.1,2400.1z
			 M5263.4,2400c-4.8,0-7.4-1.3-7.5-1.8l0,0c0.1-0.5,2.7-1.8,7.5-1.8s7.3,1.3,7.5,1.8C5270.7,2398.7,5268.2,2400,5263.4,2400z"/>
		<path class="st0" d="M5268.4,2410.3c-0.6,0-1,0.4-1,1s0.4,1,1,1h4.3c0.6,0,1-0.4,1-1s-0.4-1-1-1H5268.4z"/>
		<path class="st0" d="M5272.7,2413.7h-4.3c-0.6,0-1,0.4-1,1s0.4,1,1,1h4.3c0.6,0,1-0.4,1-1
			C5273.7,2414.1,5273.3,2413.7,5272.7,2413.7z"/>
		<path class="st0" d="M5272.7,2417h-4.3c-0.6,0-1,0.4-1,1s0.4,1,1,1h4.3c0.6,0,1-0.4,1-1C5273.7,2417.5,5273.3,2417,5272.7,2417z"
			/>
	</g>
	<path class="st0" d="M77,2.5H23C11.7,2.5,2.5,11.7,2.5,23v54c0,11.3,9.2,20.5,20.5,20.5h54c11.3,0,20.5-9.2,20.5-20.5V23
		C97.5,11.7,88.3,2.5,77,2.5z M71.5,35.7l2.6,1.8c0.2,0.1,0.4,0.1,0.6,0l2.8-1.5c0.5-0.3,1,0.2,0.9,0.7l-0.9,3.1
		c-0.1,0.2,0,0.5,0.2,0.6l2.3,2.2c0.4,0.4,0.1,1-0.4,1.1l-3.2,0.1c-0.2,0-0.4,0.1-0.5,0.3L74.5,47c-0.2,0.5-1,0.5-1.1-0.1l-1.1-3
		c-0.1-0.2-0.3-0.4-0.5-0.4l-3.2-0.4c-0.5-0.1-0.7-0.8-0.3-1.1l2.5-2c0.2-0.1,0.3-0.4,0.2-0.6l-0.6-3.1C70.4,35.8,71,35.4,71.5,35.7
		z M59.3,23l3.2,0.1c0.2,0,0.4-0.1,0.6-0.3l1.5-2.8c0.3-0.5,1-0.4,1.1,0.1l0.9,3.1c0.1,0.2,0.3,0.4,0.5,0.4l3.1,0.6
		c0.5,0.1,0.7,0.8,0.2,1.1L67.9,27c-0.2,0.1-0.3,0.4-0.3,0.6l0.4,3.2c0.1,0.5-0.6,0.9-1,0.6l-2.5-1.9c-0.2-0.1-0.4-0.2-0.6-0.1
		L61,30.7c-0.5,0.2-1-0.2-0.8-0.8l1.1-3c0.1-0.2,0-0.5-0.1-0.6L58.8,24C58.5,23.6,58.8,22.9,59.3,23z M50.2,66.5l-9.1-5.6
		c-0.7-0.4-1.5-0.4-2.1,0l-9.1,5.6c-1.6,1-3.5-0.5-3.1-2.2l2.5-10.4c0.2-0.8-0.1-1.5-0.7-2l-8.1-7c-1.4-1.2-0.6-3.5,1.2-3.6
		l10.7-0.9c0.8-0.1,1.4-0.5,1.7-1.3l4.1-9.9c0.7-1.7,3.1-1.7,3.8,0l4.1,9.9c0.3,0.7,1,1.2,1.7,1.3l10.7,0.9c1.8,0.1,2.6,2.4,1.2,3.6
		l-8.1,7c-0.6,0.5-0.8,1.3-0.7,2l2.5,10.4C53.7,66,51.8,67.4,50.2,66.5z M69.9,76.2l-3.2,0.4c-0.2,0-0.4,0.2-0.5,0.4l-1.1,3
		c-0.2,0.5-0.9,0.6-1.1,0.1l-1.4-2.9c-0.1-0.2-0.3-0.3-0.5-0.3l-3.2-0.1c-0.5,0-0.8-0.7-0.4-1.1l2.3-2.2c0.2-0.2,0.2-0.4,0.2-0.6
		l-0.9-3.1c-0.2-0.5,0.4-1,0.9-0.7l2.8,1.5c0.2,0.1,0.5,0.1,0.6,0l2.6-1.8c0.5-0.3,1.1,0.1,1,0.6l-0.6,3.1c0,0.2,0,0.5,0.2,0.6
		l2.5,2C70.7,75.4,70.5,76.1,69.9,76.2z M80,57.7l-2.4,2.1c-0.2,0.2-0.3,0.4-0.2,0.6l0.7,3.1c0.1,0.5-0.5,1-0.9,0.7l-2.7-1.7
		c-0.2-0.1-0.4-0.1-0.6,0l-2.7,1.7c-0.5,0.3-1-0.1-0.9-0.7l0.7-3.1c0.1-0.2,0-0.5-0.2-0.6l-2.4-2.1c-0.4-0.4-0.2-1,0.4-1.1l3.2-0.3
		c0.2,0,0.4-0.2,0.5-0.4l1.2-3c0.2-0.5,0.9-0.5,1.1,0l1.2,3c0.1,0.2,0.3,0.4,0.5,0.4l3.2,0.3C80.2,56.7,80.4,57.3,80,57.7z"/>
</g>
</svg>
