<svg xmlns="http://www.w3.org/2000/svg" xmlns:xlink="http://www.w3.org/1999/xlink" viewBox="0 0 204 246"><defs><style>.cls-1,.cls-2,.cls-7,.cls-8{fill:none;}.cls-2{stroke:#fff;stroke-width:0.5px;}.cls-2,.cls-7,.cls-8{stroke-miterlimit:10;}.cls-3{fill:#fff;}.cls-4{clip-path:url(#clip-path);}.cls-5{clip-path:url(#clip-path-2);}.cls-6{font-size:52.78px;font-family:BerlinSansFB-Reg, Berlin Sans FB;}.cls-7,.cls-8{stroke:#000;}.cls-8{stroke-width:1.5px;}</style><clipPath id="clip-path" transform="translate(-570 -216)"><circle class="cls-1" cx="672" cy="318" r="75"/></clipPath><clipPath id="clip-path-2" transform="translate(-570 -216)"><rect class="cls-1" x="514" y="283" width="373" height="130" transform="translate(-16.36 660.92) rotate(-50)"/></clipPath></defs><title>Logo</title><g id="Layer_1" data-name="Layer 1"><line class="cls-2" x1="77.5" y1="132" x2="77.5" y2="146"/><line class="cls-2" x1="83.5" y1="136.5" x2="83.5" y2="146.5"/><line class="cls-2" x1="114.5" y1="136" x2="114.5" y2="146"/><line class="cls-2" x1="89.5" y1="138.5" x2="89.5" y2="147"/><line class="cls-2" x1="109.06" y1="138.45" x2="109.06" y2="146.95"/><line class="cls-2" x1="96.06" y1="140.13" x2="96.06" y2="146.88"/><line class="cls-2" x1="102.06" y1="140.13" x2="102.06" y2="146.88"/><path class="cls-2" d="M704,336a27.77,27.77,0,0,0,27,26" transform="translate(-570 -216)"/><path class="cls-2" d="M634,337c-.11,2-.78,11.15-7,18.42A20.7,20.7,0,0,1,612,363" transform="translate(-570 -216)"/><circle class="cls-3" cx="102" cy="102" r="75"/><g class="cls-4"><path d="M641.85,387.23h-8v-53h8v53Z" transform="translate(-570 -216)"/><rect x="126.35" y="118.73" width="8" height="53"/><rect x="32.35" y="144.73" width="145" height="6"/></g></g><g id="Layer_2" data-name="Layer 2"><g class="cls-5"><path class="cls-3" d="M672,227a91,91,0,1,1-91,91,91.1,91.1,0,0,1,91-91m0-11A102,102,0,1,0,774,318,102,102,0,0,0,672,216Z" transform="translate(-570 -216)"/></g><rect class="cls-3" x="89" y="203" width="13" height="30"/><rect class="cls-3" x="63" y="233" width="67" height="13"/><text class="cls-6" transform="translate(45 109.27)">GMC</text><path class="cls-3" d="M666,359" transform="translate(-570 -216)"/><path class="cls-7" d="M641,336c1.5,10.53,12.07,18.75,24.77,19.87,14.49,1.28,28.75-7,31.23-19" transform="translate(-570 -216)"/><line class="cls-7" x1="120.5" y1="132" x2="120.5" y2="146"/><line class="cls-7" x1="141.5" y1="131" x2="141.5" y2="145"/><path class="cls-7" d="M718.5,361.6" transform="translate(-570 -216)"/><path class="cls-7" d="M718.5,353.6" transform="translate(-570 -216)"/><path class="cls-7" d="M619.5,361.3" transform="translate(-570 -216)"/><path class="cls-7" d="M619.5,354.7" transform="translate(-570 -216)"/><line class="cls-7" x1="56.5" y1="132.4" x2="56.5" y2="144.6"/><path class="cls-8" d="M650,273.78a30.28,30.28,0,0,1,44-.61" transform="translate(-570 -216)"/><path class="cls-8" d="M639.83,267c1.93-2.09,13.64-14.37,32.76-14.56,18.89-.18,30.75,11.6,32.75,13.65" transform="translate(-570 -216)"/><path class="cls-8" d="M660.58,281.92a15.44,15.44,0,0,1,22.42-.31" transform="translate(-570 -216)"/><path class="cls-7" d="M635,335a47,47,0,0,1-9.59,14.71,50.33,50.33,0,0,1-8.26,7,52.22,52.22,0,0,1-6.65,3.82" transform="translate(-570 -216)"/><polyline class="cls-7" points="78.5 133 78.5 141 78.5 147"/><path class="cls-7" d="M661.5,363" transform="translate(-570 -216)"/><path class="cls-7" d="M661.5,355.5" transform="translate(-570 -216)"/><path class="cls-7" d="M676.5,361.45" transform="translate(-570 -216)"/><path class="cls-7" d="M676.5,355" transform="translate(-570 -216)"/><path class="cls-7" d="M704.21,335.49a47.83,47.83,0,0,0,10.87,15,59.15,59.15,0,0,0,16.92,11" transform="translate(-570 -216)"/></g></svg>