<?xml version="1.0" encoding="utf-8"?>
<!-- Generator: Adobe Illustrator 24.0.0, SVG Export Plug-In . SVG Version: 6.00 Build 0)  -->
<svg version="1.1" id="Layer_1" xmlns="http://www.w3.org/2000/svg" xmlns:xlink="http://www.w3.org/1999/xlink" x="0px" y="0px"
	 viewBox="0 0 512 501" style="enable-background:new 0 0 512 501;" xml:space="preserve">
<style type="text/css">
	.st0{fill:#E7803B;}
</style>
<title>Music notes 4</title>
<g>
	<path class="st0" d="M248.3,130.1c-3.3-0.6-6.4,1.5-7,4.8c-0.1,0.4-0.1,0.7-0.1,1.1v73.9c0,0.1,0,0.2,0,0.2v106
		c-8.5-7.9-20.7-12.9-34.2-12.9c-25.5,0-46.2,17.7-46.2,39.4S181.5,382,207,382s46.2-17.7,46.2-39.4V217.2l90.9,17.1
		c3.3,0.6,6.4-1.5,7-4.8c0.1-0.4,0.1-0.7,0.1-1.1v-74c0-2.9-2.1-5.4-4.9-5.9L248.3,130.1z"/>
	<path class="st0" d="M486,217.8H375.2c-3.3,0-6,2.7-6,6s2.7,6,6,6H486c3.3,0,6-2.7,6-6S489.3,217.8,486,217.8z"/>
	<path class="st0" d="M26,229.8h191.2c3.3,0,6-2.7,6-6s-2.7-6-6-6H26c-3.3,0-6,2.7-6,6S22.7,229.8,26,229.8z"/>
	<path class="st0" d="M26,100.9h460c3.3,0,6-2.7,6-6s-2.7-6-6-6H26c-3.3,0-6,2.7-6,6S22.7,100.9,26,100.9z"/>
	<path class="st0" d="M486,282.2H277.2c-3.3,0-6,2.7-6,6s2.7,6,6,6H486c3.3,0,6-2.7,6-6S489.3,282.2,486,282.2z"/>
	<path class="st0" d="M26,294.2h144.7c3.3,0,6-2.7,6-6s-2.7-6-6-6H26c-3.3,0-6,2.7-6,6S22.7,294.2,26,294.2z"/>
	<path class="st0" d="M486,411.1H26c-3.3,0-6,2.7-6,6s2.7,6,6,6h460c3.3,0,6-2.7,6-6S489.3,411.1,486,411.1z"/>
	<path class="st0" d="M486,346.6H276.3c-3.3,0-6,2.7-6,6s2.7,6,6,6H486c3.3,0,6-2.7,6-6S489.3,346.6,486,346.6z"/>
	<path class="st0" d="M26,358.6h111.7c3.3,0,6-2.7,6-6s-2.7-6-6-6H26c-3.3,0-6,2.7-6,6S22.7,358.6,26,358.6z"/>
	<path class="st0" d="M486,153.4H375.2c-3.3,0-6,2.7-6,6s2.7,6,6,6H486c3.3,0,6-2.7,6-6C492,156,489.3,153.4,486,153.4z"/>
	<path class="st0" d="M26,165.4h191.2c3.3,0,6-2.7,6-6s-2.7-6-6-6H26c-3.3,0-6,2.7-6,6S22.7,165.4,26,165.4z"/>
</g>
</svg>
