<?xml version="1.0" encoding="utf-8"?>
<!-- Generator: Adobe Illustrator 24.0.0, SVG Export Plug-In . SVG Version: 6.00 Build 0)  -->
<svg version="1.1" id="Layer_1" xmlns="http://www.w3.org/2000/svg" xmlns:xlink="http://www.w3.org/1999/xlink" x="0px" y="0px"
	 viewBox="0 0 1024 1024.7" style="enable-background:new 0 0 1024 1024.7;" xml:space="preserve">
<style type="text/css">
	.st0{fill:#E78045;}
</style>
<g>
	<g>
		<g>
			<path class="st0" d="M918,512c0,13.5,0,26.9,0,40.4c0,31.9,0,63.9,0,95.8c0,37.8,0,75.5,0,113.3c0,30.9,0,61.9,0,92.8
				c0,9,0,17.9,0,26.9c0,2.2,0,4.3,0,6.5c0,0.4,0,0.8,0,1.3c0,0.7,0,1.5-0.1,2.2c0,0.7-0.1,1.4-0.1,2.1c0.2-2.8,0.1-0.6,0,0.1
				c-0.4,1.8-0.8,3.5-1.3,5.2c-0.3,0.8-0.6,1.7-0.9,2.5c0.1-0.2,1-2.1,0.2-0.6c-0.7,1.4-1.4,2.7-2.2,4c-0.4,0.6-2.7,3.8-1.8,2.7
				c1.1-1.3-0.3,0.4-0.5,0.5c-0.8,0.8-1.5,1.6-2.2,2.3c-0.5,0.5-3.8,3.2-1.4,1.4c-1,0.8-2.1,1.5-3.2,2.2c-1.3,0.8-2.7,1.5-4,2.2
				c-2,1,2.1-0.7-0.1,0c-1.1,0.4-2.1,0.7-3.2,1c-1.3,0.4-2.6,0.7-3.9,0.9c-2.9,0.6-0.7,0.1-0.1,0c-0.7,0-1.4,0.1-2.1,0.1
				c-0.7,0-1.5,0-2.2,0.1c-0.4,0-0.9,0-1.3,0c-6,0-12,0-18.1,0c-27.4,0-54.7,0-82.1,0c-37.3,0-74.5,0-111.8,0c-34.5,0-69,0-103.6,0
				c-19.1,0-38.2,0-57.4,0c-0.9,0-1.8,0-2.7,0c5,5,10,10,15,15c0-14,0-28,0-41.9c0-33.6,0-67.1,0-100.7c0-40.4,0-80.9,0-121.3
				c0-35.1,0-70.2,0-105.3c0-16.9,1-34.2,0-51.1c0-0.2,0-0.5,0-0.7c-5,5-10,10-15,15c14,0,28,0,41.9,0c33.6,0,67.1,0,100.7,0
				c40.4,0,80.9,0,121.3,0c35.1,0,70.2,0,105.3,0c17,0,34.1,0.5,51.1,0c0.2,0,0.5,0,0.7,0c7.8,0,15.4-6.9,15-15
				c-0.4-8.1-6.6-15-15-15c-14,0-28,0-41.9,0c-33.6,0-67.1,0-100.7,0c-40.4,0-80.9,0-121.3,0c-35.1,0-70.2,0-105.3,0
				c-17,0-34.1-0.5-51.1,0c-0.2,0-0.5,0-0.7,0c-8.1,0-15,6.9-15,15c0,14,0,28,0,41.9c0,33.6,0,67.1,0,100.7c0,40.4,0,80.9,0,121.3
				c0,35.1,0,70.2,0,105.3c0,17-0.5,34.1,0,51.1c0,0.2,0,0.5,0,0.7c0,8.1,6.9,15,15,15c13.7,0,27.3,0,41,0c32.5,0,65,0,97.6,0
				c38.1,0,76.1,0,114.2,0c30.7,0,61.5,0,92.2,0c18.7,0,39.3,2.2,56.7-5.5c21.2-9.4,34.2-31.4,34.3-54.3c0-5.5,0-10.9,0-16.4
				c0-26.9,0-53.9,0-80.8c0-37.6,0-75.3,0-112.9c0-35,0-69.9,0-104.9c0-19.5,0-38.9,0-58.4c0-0.9,0-1.8,0-2.8c0-7.8-6.9-15.4-15-15
				C924.9,497.4,918,503.6,918,512z"/>
		</g>
	</g>
	<g>
		<g>
			<path class="st0" d="M91,527c14,0,28,0,41.9,0c33.6,0,67.1,0,100.7,0c40.4,0,80.9,0,121.3,0c35.1,0,70.2,0,105.3,0
				c16.9,0,34.2,1,51.1,0c0.2,0,0.5,0,0.7,0c-5-5-10-10-15-15c0,14,0,28,0,41.9c0,33.6,0,67.1,0,100.7c0,40.4,0,80.9,0,121.3
				c0,35.1,0,70.2,0,105.3c0,16.9-1,34.2,0,51.1c0,0.2,0,0.5,0,0.7c5-5,10-10,15-15c-13.5,0-26.9,0-40.4,0c-31.9,0-63.9,0-95.8,0
				c-37.8,0-75.5,0-113.3,0c-30.9,0-61.9,0-92.8,0c-9,0-17.9,0-26.9,0c-2.2,0-4.3,0-6.5,0c-0.4,0-0.8,0-1.3,0c-0.7,0-1.5,0-2.2-0.1
				c-0.7,0-1.4-0.1-2.1-0.1c2.8,0.2,0.6,0.1-0.1,0c-1.8-0.4-3.5-0.8-5.2-1.3c-0.8-0.3-1.7-0.6-2.5-0.9c0.2,0.1,2.1,1,0.6,0.2
				c-1.4-0.7-2.7-1.4-4-2.2c-0.6-0.4-3.8-2.7-2.7-1.8c1.3,1.1-0.4-0.3-0.5-0.5c-0.8-0.8-1.6-1.5-2.3-2.2c-0.5-0.5-3.2-3.8-1.4-1.4
				c-0.8-1-1.5-2.1-2.2-3.2c-0.8-1.3-1.5-2.7-2.2-4c-1-2,0.7,2.1,0-0.1c-0.4-1.1-0.7-2.1-1-3.2c-0.4-1.3-0.7-2.6-0.9-3.9
				c-0.6-2.9-0.1-0.7,0-0.1c0-0.7-0.1-1.4-0.1-2.1c0-0.7,0-1.5-0.1-2.2c0-0.4,0-0.9,0-1.3c0-6,0-12,0-18.1c0-27.4,0-54.7,0-82.1
				c0-37.3,0-74.5,0-111.8c0-34.5,0-69,0-103.6c0-19.1,0-38.2,0-57.4c0-0.9,0-1.8,0-2.7c0-7.8-6.9-15.4-15-15s-15,6.6-15,15
				c0,13.7,0,27.3,0,41c0,32.5,0,65,0,97.6c0,38.1,0,76.1,0,114.2c0,30.7,0,61.5,0,92.2c0,18.7-2.2,39.3,5.5,56.7
				c9.4,21.2,31.4,34.2,54.3,34.3c5.5,0,10.9,0,16.4,0c26.9,0,53.9,0,80.8,0c37.6,0,75.3,0,112.9,0c35,0,69.9,0,104.9,0
				c19.5,0,38.9,0,58.4,0c0.9,0,1.8,0,2.8,0c8.1,0,15-6.9,15-15c0-14,0-28,0-41.9c0-33.6,0-67.1,0-100.7c0-40.4,0-80.9,0-121.3
				c0-35.1,0-70.2,0-105.3c0-17,0.5-34.1,0-51.1c0-0.2,0-0.5,0-0.7c0-8.1-6.9-15-15-15c-14,0-28,0-41.9,0c-33.6,0-67.1,0-100.7,0
				c-40.4,0-80.9,0-121.3,0c-35.1,0-70.2,0-105.3,0c-17,0-34.1-0.5-51.1,0c-0.2,0-0.5,0-0.7,0c-7.8,0-15.4,6.9-15,15
				C76.4,520.1,82.6,527,91,527z"/>
		</g>
	</g>
	<g>
		<g>
			<path class="st0" d="M918,135c0,12.5,0,25,0,37.5c0,30,0,60,0,90c0,36.3,0,72.6,0,108.9c0,31.4,0,62.8,0,94.2
				c0,15.1-0.9,30.6,0,45.7c0,0.2,0,0.5,0,0.7c5-5,10-10,15-15c-14,0-28,0-41.9,0c-33.6,0-67.1,0-100.7,0c-40.4,0-80.9,0-121.3,0
				c-35.1,0-70.2,0-105.3,0c-16.9,0-34.2-1-51.1,0c-0.2,0-0.5,0-0.7,0c5,5,10,10,15,15c0-14,0-28,0-41.9c0-33.6,0-67.1,0-100.7
				c0-40.4,0-80.9,0-121.3c0-35.1,0-70.2,0-105.3c0-16.9,1-34.2,0-51.1c0-0.2,0-0.5,0-0.7c-5,5-10,10-15,15c14.4,0,28.9,0,43.3,0
				c33.9,0,67.7,0,101.6,0c39.1,0,78.2,0,117.3,0c30.1,0,60.2,0,90.4,0c7.2,0,14.5,0,21.7,0c1.6,0,3.2,0,4.9,0.1
				c0.7,0,1.4,0.1,2.1,0.1c-2.8-0.2-0.6-0.1,0.1,0c1.5,0.3,3.1,0.7,4.6,1.1c0.9,0.3,4.6,1.8,2,0.6c1.6,0.7,3.1,1.6,4.6,2.5
				c0.6,0.4,4.5,3.4,2.2,1.5c1.1,1,2.3,2,3.3,3.1c0.6,0.6,3.2,3.7,1.4,1.4c1,1.4,2,2.9,2.9,4.4c0.4,0.6,2.4,5.2,1.3,2.3
				c0.6,1.5,1,2.9,1.4,4.4c0.4,1.5,0.8,3.1,1,4.6C917.5,129,918,134.2,918,135c0.1,7.8,6.8,15.4,15,15c8-0.4,15.1-6.6,15-15
				c-0.5-32.4-26.6-58.6-59-59c-4.4-0.1-8.9,0-13.3,0c-27.2,0-54.4,0-81.6,0c-39.3,0-78.7,0-118,0c-36.2,0-72.3,0-108.5,0
				c-18.2,0-36.6-0.6-54.8,0c-0.3,0-0.5,0-0.8,0c-8.1,0-15,6.9-15,15c0,14,0,28,0,41.9c0,33.6,0,67.1,0,100.7c0,40.4,0,80.9,0,121.3
				c0,35.1,0,70.2,0,105.3c0,17-0.5,34.1,0,51.1c0,0.2,0,0.5,0,0.7c0,8.1,6.9,15,15,15c14,0,28,0,41.9,0c33.6,0,67.1,0,100.7,0
				c40.4,0,80.9,0,121.3,0c35.1,0,70.2,0,105.3,0c17,0,34.1,0.5,51.1,0c0.2,0,0.5,0,0.7,0c8.1,0,15-6.9,15-15c0-12.5,0-25,0-37.5
				c0-30,0-60,0-90c0-36.3,0-72.6,0-108.9c0-31.4,0-62.8,0-94.2c0-15.2,0.5-30.5,0-45.7c0-0.2,0-0.5,0-0.7c0-7.8-6.9-15.4-15-15
				C924.9,120.4,918,126.6,918,135z"/>
		</g>
	</g>
	<g>
		<g>
			<path class="st0" d="M638.5,316.5c49.2,0,98.3,0,147.5,0c6.8,0,13.7,0,20.5,0c7.8,0,15.4-6.9,15-15s-6.6-15-15-15
				c-49.2,0-98.3,0-147.5,0c-6.8,0-13.7,0-20.5,0c-7.8,0-15.4,6.9-15,15S630.1,316.5,638.5,316.5L638.5,316.5z"/>
		</g>
	</g>
	<g>
		<g>
			<path class="st0" d="M648.5,694.5c46.2,0,92.3,0,138.5,0c6.5,0,13,0,19.5,0c7.8,0,15.4-6.9,15-15s-6.6-15-15-15
				c-46.2,0-92.3,0-138.5,0c-6.5,0-13,0-19.5,0c-7.8,0-15.4,6.9-15,15S640.1,694.5,648.5,694.5L648.5,694.5z"/>
		</g>
	</g>
	<g>
		<g>
			<path class="st0" d="M806.5,750.5c-46.2,0-92.3,0-138.5,0c-6.5,0-13,0-19.5,0c-7.8,0-15.4,6.9-15,15s6.6,15,15,15
				c46.2,0,92.3,0,138.5,0c6.5,0,13,0,19.5,0c7.8,0,15.4-6.9,15-15S814.9,750.5,806.5,750.5L806.5,750.5z"/>
		</g>
	</g>
	<g>
		<g>
			<path class="st0" d="M497,91c0,14,0,28,0,41.9c0,33.6,0,67.1,0,100.7c0,40.4,0,80.9,0,121.3c0,35.1,0,70.2,0,105.3
				c0,16.9-1,34.2,0,51.1c0,0.2,0,0.5,0,0.7c5-5,10-10,15-15c-14,0-28,0-41.9,0c-33.6,0-67.1,0-100.7,0c-40.4,0-80.9,0-121.3,0
				c-35.1,0-70.2,0-105.3,0c-16.9,0-34.2-1-51.1,0c-0.2,0-0.5,0-0.7,0c5,5,10,10,15,15c0-13.5,0-26.9,0-40.4c0-31.9,0-63.9,0-95.8
				c0-37.8,0-75.5,0-113.3c0-30.9,0-61.9,0-92.8c0-9,0-17.9,0-26.9c0-2.2,0-4.3,0-6.5c0-0.4,0-0.8,0-1.3c0-0.7,0-1.5,0.1-2.2
				c0-0.7,0.1-1.4,0.1-2.1c-0.2,2.8-0.1,0.6,0-0.1c0.4-1.8,0.8-3.5,1.3-5.2c0.3-0.8,0.6-1.7,0.9-2.5c-0.1,0.2-1,2.1-0.2,0.6
				c0.7-1.4,1.4-2.7,2.2-4c0.4-0.6,2.7-3.8,1.8-2.7c-1.1,1.3,0.3-0.4,0.5-0.5c0.8-0.8,1.5-1.6,2.2-2.3c0.5-0.5,3.8-3.2,1.4-1.4
				c1-0.8,2.1-1.5,3.2-2.2c1.3-0.8,2.7-1.5,4-2.2c2-1-2.1,0.7,0.1,0c1.1-0.4,2.1-0.7,3.2-1c1.3-0.4,2.6-0.7,3.9-0.9
				c2.9-0.6,0.7-0.1,0.1,0c0.7,0,1.4-0.1,2.1-0.1c0.7,0,1.5,0,2.2-0.1c0.4,0,0.9,0,1.3,0c6,0,12,0,18.1,0c27.4,0,54.7,0,82.1,0
				c37.3,0,74.5,0,111.8,0c34.5,0,69,0,103.6,0c19.1,0,38.2,0,57.4,0c0.9,0,1.8,0,2.7,0c7.8,0,15.4-6.9,15-15s-6.6-15-15-15
				c-13.7,0-27.3,0-41,0c-32.5,0-65,0-97.6,0c-38.1,0-76.1,0-114.2,0c-30.7,0-61.5,0-92.2,0c-18.7,0-39.3-2.2-56.7,5.5
				C89.1,91,76.1,112.9,76,135.8c0,5.5,0,10.9,0,16.4c0,26.9,0,53.9,0,80.8c0,37.6,0,75.3,0,112.9c0,35,0,69.9,0,104.9
				c0,19.5,0,38.9,0,58.4c0,0.9,0,1.8,0,2.8c0,8.1,6.9,15,15,15c14,0,28,0,41.9,0c33.6,0,67.1,0,100.7,0c40.4,0,80.9,0,121.3,0
				c35.1,0,70.2,0,105.3,0c17,0,34.1,0.5,51.1,0c0.2,0,0.5,0,0.7,0c8.1,0,15-6.9,15-15c0-14,0-28,0-41.9c0-33.6,0-67.1,0-100.7
				c0-40.4,0-80.9,0-121.3c0-35.1,0-70.2,0-105.3c0-17,0.5-34.1,0-51.1c0-0.2,0-0.5,0-0.7c0-7.8-6.9-15.4-15-15
				C503.9,76.4,497,82.6,497,91z"/>
		</g>
	</g>
	<g>
		<g>
			<path class="st0" d="M387,286.5c-19.2,0-38.3,0-57.5,0c-30.8,0-61.5,0-92.3,0c-7.1,0-14.1,0-21.2,0c-7.8,0-15.4,6.9-15,15
				s6.6,15,15,15c19.2,0,38.3,0,57.5,0c30.8,0,61.5,0,92.3,0c7.1,0,14.1,0,21.2,0c7.8,0,15.4-6.9,15-15S395.4,286.5,387,286.5
				L387,286.5z"/>
		</g>
	</g>
	<g>
		<g>
			<path class="st0" d="M316.5,387c0-19.2,0-38.3,0-57.5c0-30.8,0-61.5,0-92.3c0-7.1,0-14.1,0-21.2c0-7.8-6.9-15.4-15-15
				s-15,6.6-15,15c0,19.2,0,38.3,0,57.5c0,30.8,0,61.5,0,92.3c0,7.1,0,14.1,0,21.2c0,7.8,6.9,15.4,15,15S316.5,395.4,316.5,387
				L316.5,387z"/>
		</g>
	</g>
	<g>
		<g>
			<path class="st0" d="M351.4,651.4c-13.6,13.6-27.1,27.1-40.7,40.7c-21.8,21.8-43.5,43.5-65.3,65.3c-5,5-10,10-15,15
				c-5.7,5.7-5.7,15.5,0,21.2s15.5,5.7,21.2,0c13.6-13.6,27.1-27.1,40.7-40.7c21.8-21.8,43.5-43.5,65.3-65.3c5-5,10-10,15-15
				c5.7-5.7,5.7-15.5,0-21.2C366.8,645.7,357.1,645.7,351.4,651.4L351.4,651.4z"/>
		</g>
	</g>
	<g>
		<g>
			<path class="st0" d="M372.6,772.4c-13.6-13.6-27.1-27.1-40.7-40.7c-21.8-21.8-43.5-43.5-65.3-65.3c-5-5-10-10-15-15
				c-5.7-5.7-15.5-5.7-21.2,0s-5.7,15.5,0,21.2c13.6,13.6,27.1,27.1,40.7,40.7c21.8,21.8,43.5,43.5,65.3,65.3c5,5,10,10,15,15
				c5.7,5.7,15.5,5.7,21.2,0C378.3,787.8,378.3,778.1,372.6,772.4L372.6,772.4z"/>
		</g>
	</g>
</g>
</svg>
