<svg xmlns="http://www.w3.org/2000/svg" viewBox="0 0 64 80" x="0px" y="0px"><title>University-school-Building-College</title><g><path d="M32,43a5.006,5.006,0,0,0-5,5v4H37V48A5.006,5.006,0,0,0,32,43Zm-1,7H29V48h2Zm4,0H33V48h2Z"/><rect x="7" y="26" width="50" height="2"/><path d="M55,52V30H43V52ZM50,33h2v2H50Zm0,4h2v2H50Zm0,6h2v2H50Zm0,4h2v2H50ZM46,33h2v2H46Zm0,4h2v2H46Zm0,6h2v2H46Zm0,4h2v2H46Z"/><polygon points="32 13.08 15.086 20 48.914 20 32 13.08"/><rect x="9" y="22" width="46" height="2"/><path d="M41,52V30H23V52h2V48a7,7,0,0,1,14,0v4ZM29,39H27V37h2Zm0-4H27V33h2Zm4,4H31V37h2Zm0-4H31V33h2Zm4,4H35V37h2Zm0-4H35V33h2Z"/><rect x="7" y="54" width="50" height="2"/><path d="M21,52V30H9V52ZM16,33h2v2H16Zm0,4h2v2H16Zm0,6h2v2H16Zm0,4h2v2H16ZM12,33h2v2H12Zm0,4h2v2H12Zm0,6h2v2H12Zm0,4h2v2H12Z"/><rect x="4" y="58" width="56" height="2"/><path d="M40,2H32a1,1,0,0,0-1,1v9h2V8h7a1,1,0,0,0,1-1V3A1,1,0,0,0,40,2Z"/></g><text x="0" y="79" fill="#000000" font-size="5px" font-weight="bold" font-family="'Helvetica Neue', Helvetica, Arial-Unicode, Arial, Sans-serif">Created by Nhor</text><text x="0" y="84" fill="#000000" font-size="5px" font-weight="bold" font-family="'Helvetica Neue', Helvetica, Arial-Unicode, Arial, Sans-serif">from the Noun Project</text></svg>