<?xml version="1.0" encoding="utf-8"?>
<!-- Generator: Adobe Illustrator 24.0.0, SVG Export Plug-In . SVG Version: 6.00 Build 0)  -->
<svg version="1.1" id="Layer_1" xmlns="http://www.w3.org/2000/svg" xmlns:xlink="http://www.w3.org/1999/xlink" x="0px" y="0px"
	 viewBox="0 0 64 70.3" style="enable-background:new 0 0 64 70.3;" xml:space="preserve">
<style type="text/css">
	.st0{fill:#E7803B;}
</style>
<g>
	<path class="st0" d="M58,27H43.8l3.5-2H54c2.2,0,4-1.8,4-4V9c0-2.2-1.8-4-4-4H36c0-2.2-1.8-4-4-4H14c-2.2,0-4,1.8-4,4v12
		c0,2.2,1.8,4,4,4h5.7l8.3,4.7V21h4c0,2.2,1.8,4,4,4h3v2h-9c-2.8,0-5,2.2-5,5v9.5l-1.8,1.2c-0.5,0.4-1.1,0.7-1.7,1
		c0.9-1.3,1.5-2.9,1.5-4.6c0-4.4-3.6-8-8-8s-8,3.6-8,8c0,2.5,1.2,4.7,3,6.2c-5.1,1-9,5.4-9,10.8v3.5C1,61.4,2.6,63,4.5,63H11h3.5H24
		v-9c0-0.4,0.2-0.8,0.4-1.1l1.8-1.8c0.9,1.1,2.3,1.8,3.8,1.8h8l-0.8,4H33c-2.8,0-5,2.2-5,5v1h32v-1c0-2.8-2.2-5-5-5h-4.2L50,53h8
		c2.8,0,5-2.2,5-5V32C63,29.2,60.8,27,58,27z M26,19v3.3L20.3,19h-4c0.9-2.4,3.2-4,5.8-4h1.8c2.6,0,4.9,1.6,5.8,4H26z M23,13
		c-1.7,0-3-1.3-3-3s1.3-3,3-3s3,1.3,3,3S24.7,13,23,13z M32,9v10h-0.2c-0.7-2.6-2.7-4.7-5.2-5.5c0.9-0.9,1.4-2.1,1.4-3.5
		c0-2.8-2.2-5-5-5s-5,2.2-5,5c0,1.3,0.5,2.6,1.4,3.5c-2.5,0.9-4.5,2.9-5.2,5.5H14c-1.1,0-2-0.9-2-2V5c0-1.1,0.9-2,2-2h18
		c1.1,0,2,0.9,2,2v0.6C32.8,6.3,32,7.5,32,9z M34,21V9c0-1.1,0.9-2,2-2h18c1.1,0,2,0.9,2,2v12c0,1.1-0.9,2-2,2h-0.2
		c-0.7-2.6-2.7-4.7-5.2-5.5c0.9-0.9,1.4-2.1,1.4-3.5c0-2.8-2.2-5-5-5s-5,2.2-5,5c0,1.3,0.5,2.6,1.4,3.5c-2.5,0.9-4.5,2.9-5.2,5.5H36
		C34.9,23,34,22.1,34,21z M42,14c0-1.7,1.3-3,3-3s3,1.3,3,3s-1.3,3-3,3S42,15.7,42,14z M38.3,23c0.9-2.4,3.2-4,5.8-4h1.8
		c2.6,0,4.9,1.6,5.8,4h-5L41,26.3V23H38.3z M9,39c0-3.3,2.7-6,6-6s6,2.7,6,6s-2.7,6-6,6S9,42.3,9,39z M23,51.6c-0.7,0.7-1,1.5-1,2.5
		v7h-4.4c0.2-0.5,0.4-1,0.4-1.5c0-1.9-1.6-3.5-3.5-3.5H6v2h8.5c0.8,0,1.5,0.7,1.5,1.5S15.3,61,14.5,61H11H4.5C3.7,61,3,60.3,3,59.5
		V56c0-5,4-9,9-9h3.5c3.1,0,6.2-0.9,8.8-2.7l0.7-0.5V48c0,0.5,0.1,0.9,0.2,1.4L23,51.6z M57.8,61H30.2c0.4-1.2,1.5-2,2.8-2h22
		C56.3,59,57.4,59.8,57.8,61z M39.2,57l1.6-8h6.4l1.6,8H39.2z M61,48c0,1.7-1.3,3-3,3h-8.4l-0.8-4h-9.6l-0.8,4H30c-1.7,0-3-1.3-3-3
		V32c0-1.7,1.3-3,3-3h9v0.7l1.3-0.7H58c1.7,0,3,1.3,3,3V48z"/>
	<rect x="57" y="31" class="st0" width="2" height="2"/>
	<rect x="57" y="35" class="st0" width="2" height="2"/>
	<rect x="57" y="39" class="st0" width="2" height="2"/>
</g>
</svg>
