<svg xmlns="http://www.w3.org/2000/svg" xmlns:xlink="http://www.w3.org/1999/xlink" version="1.1" x="0px" y="0px" viewBox="0 0 96 120" enable-background="new 0 0 96 96" xml:space="preserve"><g><path d="M40.951,29.977H26.047c-2.526,0-4.575,2.049-4.575,4.576V60.49c0,2.492,1.996,4.512,4.477,4.565v19.674   c0,2.527,2.007,4.576,4.48,4.576h6.144c2.473,0,4.479-2.049,4.479-4.576V65.057c2.48-0.055,4.478-2.073,4.478-4.566V34.554   C45.527,32.025,43.479,29.977,40.951,29.977z"/><path d="M69.951,29.977H55.047c-2.526,0-4.575,2.049-4.575,4.576V60.49c0,2.492,1.996,4.512,4.477,4.565v19.674   c0,2.527,2.007,4.576,4.48,4.576h6.144c2.473,0,4.479-2.049,4.479-4.576V65.057c2.48-0.055,4.478-2.073,4.478-4.566V34.554   C74.526,32.025,72.478,29.977,69.951,29.977z"/><path d="M62.504,28.583c4.247,0,7.701-3.454,7.701-7.702c0-0.946-0.176-1.852-0.492-2.691l0.318-3.76h-3.338h-8.381h-3.34   l0.318,3.76c-0.314,0.839-0.49,1.745-0.49,2.691C54.802,25.126,58.255,28.583,62.504,28.583z"/><path d="M54.406,14.061h0.004h4.521h7.133h4.528v1.524l0.802-0.856v1.993c-0.287,0.229-0.06,0.677-0.06,1.197   c0,0.753-0.017,0.084,0.485,0.084c0.505,0,0.49,0.669,0.49-0.084c0-0.52,0.228-0.968-0.063-1.197v-2.451l2.438-2.152L62.5,6.694   l-12.186,5.423l4.092,3.467V14.061z"/><path d="M33.504,28.583c4.247,0,7.701-3.454,7.701-7.702c0-0.946-0.176-1.852-0.492-2.691l0.318-3.76h-3.338h-8.381h-3.34   l0.318,3.76c-0.314,0.839-0.49,1.745-0.49,2.691C25.802,25.126,29.255,28.583,33.504,28.583z"/><path d="M21.314,12.117l4.092,3.467v-1.524h0.004h4.521h7.133h4.528v1.524l0.802-0.856v1.993c-0.287,0.229-0.06,0.677-0.06,1.197   c0,0.753-0.017,0.084,0.485,0.084c0.505,0,0.49,0.669,0.49-0.084c0-0.52,0.228-0.968-0.063-1.197v-2.451l2.438-2.152L33.5,6.694   L21.314,12.117z"/></g><text x="0" y="111" fill="#000000" font-size="5px" font-weight="bold" font-family="'Helvetica Neue', Helvetica, Arial-Unicode, Arial, Sans-serif">Created by designvector</text><text x="0" y="116" fill="#000000" font-size="5px" font-weight="bold" font-family="'Helvetica Neue', Helvetica, Arial-Unicode, Arial, Sans-serif">from the Noun Project</text></svg>